<svg width="512" height="448" viewBox="0 0 512 448" fill="none" xmlns="http://www.w3.org/2000/svg">
<path fill-rule="evenodd" clip-rule="evenodd" d="M32 448H480C497.673 448 512 433.673 512 416V352C512 334.327 497.673 320 480 320H32C14.327 320 0 334.327 0 352V416C0 433.673 14.327 448 32 448ZM368 360C354.745 360 344 370.745 344 384C344 397.255 354.745 408 368 408C381.255 408 392 397.255 392 384C392 370.745 381.255 360 368 360ZM408 384C408 370.745 418.745 360 432 360C445.255 360 456 370.745 456 384C456 397.255 445.255 408 432 408C418.745 408 408 397.255 408 384Z" fill="#FF3900"/>
<path fill-rule="evenodd" clip-rule="evenodd" d="M32 288H480C497.673 288 512 273.673 512 256V192C512 174.327 497.673 160 480 160H32C14.327 160 0 174.327 0 192V256C0 273.673 14.327 288 32 288ZM368 200C354.745 200 344 210.745 344 224C344 237.255 354.745 248 368 248C381.255 248 392 237.255 392 224C392 210.745 381.255 200 368 200ZM408 224C408 210.745 418.745 200 432 200C445.255 200 456 210.745 456 224C456 237.255 445.255 248 432 248C418.745 248 408 237.255 408 224Z" fill="#EFF3F7"/>
<path fill-rule="evenodd" clip-rule="evenodd" d="M32 128H480C497.673 128 512 113.673 512 96V32C512 14.327 497.673 0 480 0H32C14.327 0 0 14.327 0 32V96C0 113.673 14.327 128 32 128ZM368 40C354.745 40 344 50.745 344 64C344 77.255 354.745 88 368 88C381.255 88 392 77.255 392 64C392 50.745 381.255 40 368 40ZM408 64C408 50.745 418.745 40 432 40C445.255 40 456 50.745 456 64C456 77.255 445.255 88 432 88C418.745 88 408 77.255 408 64Z" fill="#EFF3F7"/>
</svg>
