<svg width="603" height="102" viewBox="0 0 603 102" fill="none" xmlns="http://www.w3.org/2000/svg">
<path d="M169.6 50.48H186V74.16C182.693 76.4533 178.853 78.2133 174.48 79.44C170.107 80.6667 165.813 81.28 161.6 81.28C155.627 81.28 150.267 80.0533 145.52 77.6C140.773 75.0933 137.04 71.6267 134.32 67.2C131.653 62.72 130.32 57.6533 130.32 52C130.32 46.3467 131.653 41.3067 134.32 36.88C137.04 32.4 140.8 28.9333 145.6 26.48C150.453 23.9733 155.92 22.72 162 22.72C167.493 22.72 172.4 23.6533 176.72 25.52C181.093 27.3333 184.72 30 187.6 33.52L175.52 44.16C172 40.0533 167.813 38 162.96 38C158.8 38 155.493 39.2533 153.04 41.76C150.587 44.2667 149.36 47.68 149.36 52C149.36 56.2133 150.56 59.6 152.96 62.16C155.413 64.72 158.667 66 162.72 66C165.12 66 167.413 65.5467 169.6 64.64V50.48ZM193.484 20.64H211.564V80H193.484V20.64ZM242.698 80.8C237.845 80.8 233.471 79.84 229.578 77.92C225.738 75.9467 222.725 73.2533 220.538 69.84C218.351 66.3733 217.258 62.4533 217.258 58.08C217.258 53.7067 218.351 49.8133 220.538 46.4C222.725 42.9333 225.738 40.24 229.578 38.32C233.471 36.4 237.845 35.44 242.698 35.44C247.605 35.44 251.978 36.4 255.818 38.32C259.711 40.24 262.725 42.9333 264.858 46.4C267.045 49.8133 268.138 53.7067 268.138 58.08C268.138 62.4533 267.045 66.3733 264.858 69.84C262.725 73.2533 259.711 75.9467 255.818 77.92C251.978 79.84 247.605 80.8 242.698 80.8ZM242.698 66.72C244.778 66.72 246.485 65.9733 247.818 64.48C249.151 62.9333 249.818 60.8 249.818 58.08C249.818 55.36 249.151 53.2533 247.818 51.76C246.485 50.2667 244.778 49.52 242.698 49.52C240.618 49.52 238.911 50.2667 237.578 51.76C236.245 53.2533 235.578 55.36 235.578 58.08C235.578 60.8 236.245 62.9333 237.578 64.48C238.911 65.9733 240.618 66.72 242.698 66.72ZM302.997 35.44C306.837 35.44 310.357 36.3733 313.557 38.24C316.81 40.0533 319.37 42.6933 321.237 46.16C323.157 49.5733 324.117 53.5467 324.117 58.08C324.117 62.6133 323.157 66.6133 321.237 70.08C319.37 73.5467 316.81 76.2133 313.557 78.08C310.357 79.8933 306.837 80.8 302.997 80.8C297.61 80.8 293.61 79.3333 290.997 76.4V80H273.797V20.64H291.877V39.2C294.437 36.6933 298.144 35.44 302.997 35.44ZM298.677 66.72C300.757 66.72 302.464 65.9733 303.797 64.48C305.13 62.9333 305.797 60.8 305.797 58.08C305.797 55.36 305.13 53.2533 303.797 51.76C302.464 50.2667 300.757 49.52 298.677 49.52C296.597 49.52 294.89 50.2667 293.557 51.76C292.224 53.2533 291.557 55.36 291.557 58.08C291.557 60.8 292.224 62.9333 293.557 64.48C294.89 65.9733 296.597 66.72 298.677 66.72ZM348.319 35.44C355.999 35.44 361.865 37.1733 365.919 40.64C369.972 44.0533 371.999 49.3333 371.999 56.48V80H355.199V74.24C353.119 78.6133 348.985 80.8 342.799 80.8C339.332 80.8 336.372 80.2133 333.919 79.04C331.519 77.8133 329.679 76.1867 328.399 74.16C327.172 72.08 326.559 69.76 326.559 67.2C326.559 62.88 328.212 59.6 331.519 57.36C334.825 55.12 339.839 54 346.559 54H353.839C353.252 50.5867 350.505 48.88 345.599 48.88C343.625 48.88 341.625 49.2 339.599 49.84C337.572 50.4267 335.839 51.2533 334.399 52.32L328.639 40.4C331.145 38.8533 334.159 37.6533 337.679 36.8C341.252 35.8933 344.799 35.44 348.319 35.44ZM348.239 69.92C349.519 69.92 350.665 69.5733 351.679 68.88C352.692 68.1867 353.439 67.1467 353.919 65.76V62.72H349.439C345.759 62.72 343.919 63.9467 343.919 66.4C343.919 67.4133 344.292 68.2667 345.039 68.96C345.839 69.6 346.905 69.92 348.239 69.92ZM379.813 20.64H397.893V80H379.813V20.64ZM461.666 24V80H442.786V59.36H425.346V80H406.466V24H425.346V43.84H442.786V24H461.666ZM493.323 80.8C488.47 80.8 484.096 79.84 480.203 77.92C476.363 75.9467 473.35 73.2533 471.163 69.84C468.976 66.3733 467.883 62.4533 467.883 58.08C467.883 53.7067 468.976 49.8133 471.163 46.4C473.35 42.9333 476.363 40.24 480.203 38.32C484.096 36.4 488.47 35.44 493.323 35.44C498.23 35.44 502.603 36.4 506.443 38.32C510.336 40.24 513.35 42.9333 515.483 46.4C517.67 49.8133 518.763 53.7067 518.763 58.08C518.763 62.4533 517.67 66.3733 515.483 69.84C513.35 73.2533 510.336 75.9467 506.443 77.92C502.603 79.84 498.23 80.8 493.323 80.8ZM493.323 66.72C495.403 66.72 497.11 65.9733 498.443 64.48C499.776 62.9333 500.443 60.8 500.443 58.08C500.443 55.36 499.776 53.2533 498.443 51.76C497.11 50.2667 495.403 49.52 493.323 49.52C491.243 49.52 489.536 50.2667 488.203 51.76C486.87 53.2533 486.203 55.36 486.203 58.08C486.203 60.8 486.87 62.9333 488.203 64.48C489.536 65.9733 491.243 66.72 493.323 66.72ZM541.542 80.8C537.809 80.8 534.129 80.4 530.502 79.6C526.875 78.8 523.942 77.76 521.702 76.48L526.662 64.56C528.689 65.7867 531.089 66.7467 533.862 67.44C536.635 68.1333 539.329 68.48 541.942 68.48C544.022 68.48 545.462 68.32 546.262 68C547.115 67.6267 547.542 67.0933 547.542 66.4C547.542 65.7067 547.009 65.2267 545.942 64.96C544.929 64.6933 543.249 64.4267 540.902 64.16C537.329 63.7333 534.289 63.2 531.782 62.56C529.275 61.8667 527.062 60.56 525.142 58.64C523.275 56.72 522.342 53.9733 522.342 50.4C522.342 47.5733 523.195 45.04 524.902 42.8C526.609 40.56 529.142 38.7733 532.502 37.44C535.915 36.1067 539.995 35.44 544.742 35.44C548.049 35.44 551.275 35.76 554.422 36.4C557.622 36.9867 560.342 37.8667 562.582 39.04L557.622 50.96C553.782 48.8267 549.569 47.76 544.982 47.76C541.035 47.76 539.062 48.4533 539.062 49.84C539.062 50.5333 539.595 51.04 540.662 51.36C541.729 51.6267 543.409 51.8933 545.702 52.16C549.275 52.5867 552.289 53.1467 554.742 53.84C557.249 54.5333 559.435 55.84 561.302 57.76C563.222 59.68 564.182 62.4267 564.182 66C564.182 68.72 563.329 71.2 561.622 73.44C559.915 75.68 557.355 77.4667 553.942 78.8C550.529 80.1333 546.395 80.8 541.542 80.8ZM601.896 78.48C599.176 80.0267 595.47 80.8 590.776 80.8C584.643 80.8 579.923 79.3333 576.616 76.4C573.31 73.4133 571.656 68.96 571.656 63.04V51.84H565.656V38.64H571.656V26.4H589.736V38.64H598.696V51.84H589.736V62.88C589.736 64.2133 590.083 65.2533 590.776 66C591.47 66.7467 592.376 67.12 593.496 67.12C595.043 67.12 596.403 66.72 597.576 65.92L601.896 78.48Z" fill="#EFF3F7"/>
<path d="M49.5 1.59375C22.1612 1.59375 0 23.713 0 51C0 78.287 22.1612 100.406 49.5 100.406C76.8388 100.406 99 78.287 99 51C99 23.713 76.8388 1.59375 49.5 1.59375ZM65.9248 72.8344C65.1464 73.6073 64.33 74.4182 63.6674 75.0816C63.0706 75.6792 62.6494 76.4163 62.4359 77.2152C62.1345 78.3428 61.891 79.4823 61.4838 80.576L58.0128 89.9094C55.2664 90.5071 52.4241 90.8438 49.5 90.8438V85.3891C49.8373 82.875 47.9751 78.1655 44.9831 75.1792C43.7855 73.9839 43.1129 72.3622 43.1129 70.6709V64.2939C43.1129 61.975 41.8614 59.8433 39.8275 58.7217C36.9593 57.1379 32.8796 54.9246 30.0852 53.5201C27.7939 52.3686 25.6741 50.9024 23.768 49.1871L23.6083 49.0437C22.2452 47.8156 21.0349 46.4283 20.0036 44.9119C18.1314 42.1686 15.0815 37.6563 13.0995 34.7238C17.1853 25.6594 24.5484 18.3799 33.6979 14.4254L38.4902 16.818C40.614 17.8779 43.1129 16.3379 43.1129 13.9672V11.7161C44.7077 11.4591 46.3304 11.2957 47.9811 11.2339L53.6297 16.8718C54.8771 18.117 54.8771 20.135 53.6297 21.3802L52.6935 22.3125L50.6297 24.3724C50.007 24.994 50.007 26.004 50.6297 26.6256L51.5658 27.5599C52.1886 28.1815 52.1886 29.1915 51.5658 29.8131L49.9691 31.4068C49.6692 31.7055 49.2629 31.8732 48.8393 31.873H47.045C46.6298 31.873 46.2306 32.0344 45.9312 32.3252L43.9512 34.2477C43.7085 34.4836 43.5472 34.7904 43.4905 35.1237C43.4338 35.4571 43.4847 35.7998 43.6358 36.1024L46.7476 42.3161C47.2785 43.3759 46.506 44.623 45.3204 44.623H44.1947C43.8095 44.623 43.4382 44.4836 43.1488 44.2325L41.2966 42.6268C40.8774 42.2639 40.3708 42.0161 39.8266 41.9078C39.2825 41.7995 38.7194 41.8345 38.1928 42.0093L31.9714 44.0791C31.4964 44.2372 31.0833 44.5405 30.7907 44.9459C30.498 45.3514 30.3406 45.8385 30.3407 46.3383C30.3407 47.2407 30.8517 48.0635 31.66 48.4679L33.8716 49.5716C35.7498 50.5099 37.8216 50.998 39.9214 50.998C42.0211 50.998 44.4302 56.4347 46.3084 57.373H59.6315C61.3261 57.373 62.9488 58.0444 64.1484 59.2397L66.8809 61.967C68.0224 63.1068 68.6636 64.6525 68.6633 66.2641C68.6629 67.4853 68.4207 68.6944 67.9508 69.822C67.4808 70.9495 66.7923 71.9732 65.9248 72.8344V72.8344ZM83.2319 54.6357C82.0762 54.3469 81.0682 53.6396 80.4076 52.6495L76.8188 47.2766C76.2937 46.4916 76.0134 45.5689 76.0134 44.625C76.0134 43.6811 76.2937 42.7584 76.8188 41.9734L80.7289 36.1204C81.192 35.4291 81.8267 34.8673 82.5732 34.4967L85.164 33.2038C87.8625 38.5668 89.4194 44.5991 89.4194 51C89.4194 52.7272 89.2717 54.4186 89.0561 56.088L83.2319 54.6357Z" fill="#EFF3F7"/>
</svg>
